Coordinates
version=1
nRows=20
nColumns=63
inDegrees=yes

Units are S.I. units (second, meters, Newtons, ...)
If the header above contains a line with 'inDegrees', this indicates whether rotational values are in degrees (yes) or radians (no).

endheader
time	pelvis_tilt	pelvis_list	pelvis_rotation	pelvis_tx	pelvis_ty	pelvis_tz	hip_flexion_r	hip_adduction_r	hip_rotation_r	knee_angle_r	knee_angle_r_beta	ankle_angle_r	subtalar_angle_r	mtp_angle_r	hip_flexion_l	hip_adduction_l	hip_rotation_l	knee_angle_l	knee_angle_l_beta	ankle_angle_l	subtalar_angle_l	mtp_angle_l	L5_S1_Flex_Ext	L5_S1_Lat_Bending	L5_S1_axial_rotation	L4_L5_Flex_Ext	L4_L5_Lat_Bending	L4_L5_axial_rotation	L3_L4_Flex_Ext	L3_L4_Lat_Bending	L3_L4_axial_rotation	L2_L3_Flex_Ext	L2_L3_Lat_Bending	L2_L3_axial_rotation	L1_L2_Flex_Ext	L1_L2_Lat_Bending	L1_L2_axial_rotation	L1_T12_Flex_Ext	L1_T12_Lat_Bending	L1_T12_axial_rotation	Abs_r3	Abs_r2	Abs_r1	Abs_t1	Abs_t2	neck_flexion	neck_bending	neck_rotation	arm_flex_r	arm_add_r	arm_rot_r	elbow_flex_r	pro_sup_r	wrist_flex_r	wrist_dev_r	arm_flex_l	arm_add_l	arm_rot_l	elbow_flex_l	pro_sup_l	wrist_flex_l	wrist_dev_l
0.728814	-4.900994	-2.690161	81.378158	0.229310	0.869407	0.479794	1.782739	-3.621713	12.269021	10.814638	0.188751	39.568188	-2.331668	0.000000	-0.384246	4.795903	12.683903	3.493945	0.060981	36.829555	-17.750635	0.000000	0.139898	-0.373229	1.019786	0.259805	-0.496394	1.083522	0.229839	-0.907469	1.083522	0.159890	-0.907469	0.892312	0.129910	-0.761088	0.828576	0.079938	-0.578132	0.764839	0.999280	-4.222040	5.671742	0.000000	0.000000	22.059102	0.386406	-0.533577	18.144190	-3.859514	72.821802	38.796945	41.644356	2.601017	14.142782	22.670588	-13.567272	77.591774	48.354106	64.157939	3.399355	10.599025
0.745763	-4.961045	-2.867929	81.688385	0.228636	0.869052	0.481058	2.145200	-3.711501	11.555541	11.039780	0.192681	39.724984	-1.842854	0.000000	0.150035	4.885582	12.846593	3.897650	0.068027	37.007492	-17.718956	0.000000	0.133951	-0.373814	0.941838	0.248760	-0.497172	1.000703	0.220068	-0.908890	1.000703	0.153093	-0.908890	0.824109	0.124387	-0.762281	0.765244	0.076540	-0.579037	0.706379	0.956799	-4.228654	5.238223	0.000000	0.000000	22.399711	0.403886	-0.189205	18.491165	-3.941732	72.927313	38.977485	46.273536	3.130167	13.001610	22.959817	-13.694548	77.944962	48.572184	65.807046	2.899523	10.624634
0.762712	-5.005504	-3.076668	82.034235	0.227881	0.868619	0.482562	2.566896	-3.792084	10.776447	11.276582	0.196813	39.903318	-1.273949	0.000000	0.769885	4.968743	13.020373	4.370465	0.076279	37.201238	-17.683929	0.000000	0.128459	-0.372010	0.869592	0.238561	-0.494773	0.923942	0.211045	-0.904505	0.923942	0.146816	-0.904505	0.760893	0.119287	-0.758603	0.706544	0.073401	-0.576244	0.652194	0.917570	-4.208252	4.836412	0.000000	0.000000	22.767271	0.411715	0.154731	18.811154	-4.077385	72.679793	39.335072	52.247273	4.005398	11.595052	23.299183	-13.887525	78.184333	48.923053	68.116254	2.299380	10.499154
0.779661	-5.041248	-3.333149	82.421076	0.227075	0.868084	0.484253	3.052608	-3.851637	10.095273	11.512967	0.200939	40.056719	-0.862928	0.000000	1.489083	5.046572	13.224321	4.912331	0.085736	37.396785	-17.661266	0.000000	0.127842	-0.369782	0.804357	0.237415	-0.491810	0.854629	0.210031	-0.899088	0.854629	0.146110	-0.899088	0.703812	0.118714	-0.754059	0.653540	0.073049	-0.572792	0.603268	0.913160	-4.183047	4.473593	0.000000	0.000000	23.148661	0.375144	0.384269	19.037148	-4.275952	72.281424	40.011332	56.054459	4.483645	10.481399	23.606745	-14.134233	78.172294	49.362612	71.140868	1.738979	9.980189
0.796610	-5.077890	-3.633495	82.831467	0.226221	0.867433	0.486115	3.612194	-3.917307	9.361592	11.771308	0.205448	40.244002	-0.382342	0.000000	2.296319	5.129559	13.435373	5.512267	0.096207	37.596660	-17.633032	0.000000	0.131932	-0.367585	0.740772	0.245011	-0.488888	0.787070	0.216751	-0.893747	0.787070	0.150785	-0.893747	0.648176	0.122512	-0.749580	0.601877	0.075386	-0.569389	0.555579	0.942376	-4.158197	4.119952	0.000000	0.000000	23.553244	0.338226	0.590489	19.240158	-4.524790	71.701349	40.927062	59.738469	4.824923	9.261851	23.760528	-14.444013	77.781581	49.945295	73.914455	1.311616	9.352305
0.813559	-5.091574	-3.960938	83.289053	0.225271	0.866710	0.488088	4.201550	-3.969792	8.548118	12.026213	0.209897	40.441559	0.149048	0.000000	3.160120	5.199204	13.682318	6.155306	0.107430	37.795029	-17.613369	0.000000	0.139207	-0.363160	0.685429	0.258522	-0.483003	0.728268	0.228704	-0.882988	0.728268	0.159100	-0.882988	0.599750	0.129268	-0.740557	0.556911	0.079543	-0.562535	0.514072	0.994343	-4.108142	3.812150	0.000000	0.000000	23.942570	0.253692	0.668351	19.364735	-4.868498	70.783415	42.077509	63.156878	5.320532	7.987946	23.879451	-14.793283	77.288755	50.574450	76.496224	1.041359	8.299371
0.830508	-5.114334	-4.315124	83.748363	0.224326	0.865902	0.490128	4.818976	-4.012004	7.985414	12.272499	0.214196	40.581318	0.355217	0.000000	4.063855	5.272811	13.922967	6.808017	0.118822	37.987624	-17.592163	0.000000	0.150453	-0.360741	0.631209	0.279407	-0.479785	0.670660	0.247180	-0.877105	0.670660	0.171953	-0.877105	0.552308	0.139711	-0.735622	0.512858	0.085969	-0.558787	0.473407	1.074674	-4.080770	3.510597	0.000000	0.000000	24.344252	0.167886	0.684399	19.541718	-5.262396	69.699716	43.325921	68.151095	5.855424	6.366333	23.748309	-15.210892	76.389219	51.411180	78.483695	0.961553	7.331698
0.847458	-5.113151	-4.678742	84.208246	0.223331	0.865083	0.492188	5.440753	-4.037906	7.424716	12.511745	0.218371	40.709357	0.548258	0.000000	4.983265	5.329557	14.157965	7.474003	0.130446	38.172343	-17.574698	0.000000	0.164234	-0.355569	0.586958	0.304999	-0.472907	0.623643	0.269820	-0.864530	0.623643	0.187703	-0.864530	0.513589	0.152508	-0.725076	0.476904	0.093843	-0.550776	0.440219	1.173109	-4.022266	3.264487	0.000000	0.000000	24.701954	0.034133	0.579011	19.765420	-5.785100	68.561050	44.689033	73.355723	6.191005	4.556158	23.475092	-15.678802	75.263934	52.334182	79.906330	1.300817	6.050028
0.864407	-5.120022	-5.029485	84.582850	0.222447	0.864273	0.494235	6.070696	-4.066311	6.987624	12.771773	0.222909	40.836127	0.685673	0.000000	5.867405	5.387505	14.315440	8.101571	0.141399	38.328375	-17.569124	0.000000	0.177689	-0.351443	0.558715	0.329986	-0.467419	0.593635	0.291925	-0.854498	0.593635	0.203081	-0.854498	0.488876	0.165002	-0.716663	0.453956	0.101531	-0.544385	0.419036	1.269214	-3.975593	3.107404	0.000000	0.000000	25.030775	-0.089386	0.448052	20.104256	-6.405253	67.496331	46.084358	78.700456	6.243249	2.629588	22.963246	-16.267118	73.751192	53.549679	80.636295	1.860353	4.874061
0.881356	-5.146614	-5.353075	84.847582	0.221717	0.863503	0.496236	6.692152	-4.115571	6.618257	13.040181	0.227594	40.977914	0.873251	0.000000	6.693032	5.455607	14.355162	8.682037	0.151530	38.457911	-17.544609	0.000000	0.189009	-0.349207	0.547842	0.351008	-0.464446	0.582082	0.310523	-0.849063	0.582082	0.216018	-0.849063	0.479362	0.175514	-0.712104	0.445122	0.108000	-0.540922	0.410882	1.350071	-3.950304	3.046934	0.000000	0.000000	25.336468	-0.197902	0.360917	20.571744	-7.130205	66.528303	47.452040	84.046279	6.083425	0.618264	22.244762	-17.038323	71.862744	55.143596	80.485035	2.544961	3.930532
0.898305	-5.196197	-5.647385	85.033321	0.221122	0.862791	0.498105	7.291974	-4.180249	6.322736	13.320845	0.232493	41.124869	1.048574	0.000000	7.439023	5.529520	14.364759	9.192550	0.160440	38.530103	-17.564890	0.000000	0.199764	-0.349060	0.546678	0.370982	-0.464250	0.580845	0.328193	-0.848705	0.580845	0.228311	-0.848705	0.478343	0.185501	-0.711804	0.444176	0.114145	-0.540694	0.410008	1.426897	-3.948640	3.040458	0.000000	0.000000	25.577056	-0.254357	0.362372	21.095817	-7.950372	65.529904	48.748794	89.125808	5.847114	-1.320057	21.381305	-18.045084	69.608334	57.168501	79.488622	3.204605	3.415079
0.915254	-5.259023	-5.892057	85.048944	0.220769	0.862165	0.499797	7.862565	-4.247458	6.151791	13.622911	0.237765	41.277379	1.254872	0.000000	8.059854	5.599195	14.230123	9.609200	0.167712	38.560671	-17.582210	0.000000	0.208039	-0.349002	0.569344	0.386349	-0.464173	0.604928	0.341787	-0.848564	0.604928	0.237768	-0.848564	0.498176	0.193185	-0.711685	0.462592	0.118873	-0.540604	0.427008	1.486001	-3.947982	3.166522	0.000000	0.000000	25.750007	-0.325772	0.415219	21.633722	-8.869299	64.402540	49.956400	93.750678	5.694906	-3.000562	20.434550	-19.290130	67.027322	59.638623	78.099603	3.696952	3.387439
0.932203	-5.349642	-6.072759	84.948712	0.220660	0.861664	0.501246	8.352229	-4.323887	6.167491	13.902178	0.242639	41.382984	1.328636	0.000000	8.532678	5.676666	14.014129	9.924910	0.173222	38.526480	-17.610535	0.000000	0.212262	-0.351722	0.603157	0.394192	-0.467791	0.640854	0.348725	-0.855178	0.640854	0.242594	-0.855178	0.527762	0.197107	-0.717232	0.490065	0.121287	-0.544818	0.452368	1.516166	-3.978754	3.354578	0.000000	0.000000	25.866357	-0.385837	0.569299	22.088527	-9.851199	63.220325	51.226918	94.045528	4.824423	-3.929833	19.524415	-20.833100	64.211249	62.525855	76.537245	3.913424	3.899072
0.949153	-5.453568	-6.183765	84.702245	0.220791	0.861286	0.502402	8.765278	-4.402301	6.286009	14.179269	0.247475	41.469274	1.413602	0.000000	8.837351	5.750186	13.697092	10.129405	0.176791	38.448868	-17.643410	0.000000	0.213093	-0.354607	0.653615	0.395735	-0.471628	0.694466	0.350091	-0.862192	0.694466	0.243544	-0.862192	0.571913	0.197878	-0.723115	0.531062	0.121761	-0.549287	0.490211	1.522103	-4.011389	3.635211	0.000000	0.000000	25.913249	-0.450735	0.814779	22.470371	-10.903247	61.947565	52.432472	92.007060	3.692951	-4.219877	18.748911	-22.630704	61.250602	65.740867	74.930603	4.044787	4.992565
0.966102	-5.564756	-6.223929	84.333278	0.221147	0.861045	0.503214	9.083618	-4.474199	6.520755	14.440121	0.252028	41.514300	1.457336	0.000000	8.967640	5.815398	13.305718	10.220143	0.178375	38.341088	-17.675232	0.000000	0.211321	-0.357001	0.717529	0.392443	-0.474811	0.762375	0.347179	-0.868012	0.762375	0.241518	-0.868012	0.627838	0.196232	-0.727996	0.582992	0.120749	-0.552994	0.538147	1.509441	-4.038464	3.990682	0.000000	0.000000	25.886473	-0.506231	1.178800	22.767940	-12.018174	60.654080	53.525137	87.717001	2.245739	-3.824116	18.210617	-24.660387	58.304843	69.188573	73.336103	4.227286	6.622584
0.983051	-5.664954	-6.198202	83.879398	0.221633	0.860955	0.503669	9.301102	-4.528949	6.816320	14.676629	0.256155	41.517513	1.489343	0.000000	8.936734	5.861290	12.871550	10.211084	0.178217	38.220488	-17.707149	0.000000	0.207557	-0.355270	0.781428	0.385454	-0.472510	0.830267	0.340996	-0.863804	0.830267	0.237217	-0.863804	0.683749	0.192738	-0.724467	0.634910	0.118598	-0.550314	0.586071	1.482559	-4.018890	4.346065	0.000000	0.000000	25.767220	-0.519969	1.784138	23.110642	-13.163573	59.238760	54.244587	87.195977	1.300136	-3.714265	17.858026	-26.879620	55.320970	72.799612	72.097341	4.523434	8.719288
1.000000	-5.753549	-6.109318	83.376843	0.222234	0.861058	0.503756	9.404269	-4.564167	7.196232	14.866443	0.259468	41.463405	1.452221	0.000000	8.752092	5.888519	12.420331	10.099088	0.176262	38.082232	-17.738811	0.000000	0.201389	-0.350510	0.845274	0.374000	-0.466179	0.898104	0.330863	-0.852230	0.898104	0.230168	-0.852230	0.739615	0.187010	-0.714760	0.686785	0.115074	-0.542940	0.633956	1.438504	-3.965041	4.701160	0.000000	0.000000	25.570928	-0.510144	2.573145	23.444484	-14.354757	57.981153	54.710300	86.863162	0.162197	-3.493680	17.763520	-29.248005	52.403532	76.504547	71.534792	4.915234	11.189533
1.016949	-5.830551	-5.963346	82.865206	0.222914	0.861381	0.503489	9.390030	-4.583002	7.643246	14.993861	0.261692	41.349026	1.344768	0.000000	8.429518	5.898756	11.989690	9.884191	0.172512	37.925166	-17.766706	0.000000	0.192486	-0.343535	0.908934	0.357465	-0.456902	0.965743	0.316235	-0.835272	0.965743	0.219992	-0.835272	0.795318	0.178742	-0.700537	0.738509	0.109986	-0.532136	0.681701	1.374905	-3.886140	5.055220	0.000000	0.000000	25.300966	-0.497530	3.478196	23.738520	-15.588020	56.932552	54.921980	86.674019	-1.287090	-3.299761	17.981795	-31.722850	49.650546	80.265380	71.791669	5.288747	13.953669
1.033898	-5.883474	-5.779077	82.385268	0.223619	0.861938	0.502909	9.274504	-4.572392	8.144973	15.055930	0.262776	41.171992	1.142076	0.000000	8.014593	5.883467	11.613760	9.602968	0.167603	37.757712	-17.796989	0.000000	0.181669	-0.332429	0.964279	0.337377	-0.442131	1.024546	0.298463	-0.808268	1.024546	0.207629	-0.808268	0.843744	0.168697	-0.677890	0.783476	0.103805	-0.514933	0.723209	1.297640	-3.760505	5.363028	0.000000	0.000000	24.949850	-0.475621	4.563244	23.975362	-16.862039	56.068647	54.932267	86.658579	-2.896115	-3.107150	18.441693	-34.293034	47.034248	84.086775	72.773709	5.460091	16.958427
1.050847	-5.909525	-5.562800	81.963084	0.224321	0.862732	0.502062	9.058422	-4.531613	8.695839	15.039534	0.262489	40.932541	0.834387	0.000000	7.519742	5.841714	11.310611	9.253069	0.161497	37.567893	-17.829913	0.000000	0.167734	-0.317484	1.010757	0.311499	-0.422254	1.073930	0.275571	-0.771931	1.073930	0.191704	-0.771931	0.884413	0.155758	-0.647414	0.821240	0.095843	-0.491783	0.758068	1.198110	-3.591445	5.621529	0.000000	0.000000	24.538278	-0.467493	5.774723	24.072427	-18.161793	55.229664	54.828951	86.731886	-4.493575	-2.872354	19.118314	-36.944222	44.529287	87.946928	74.424671	5.326570	20.070110
